<?xml version="1.0" encoding="UTF-8" standalone="no"?>
<!-- Generator: Adobe Illustrator 19.0.1, SVG Export Plug-In . SVG Version: 6.00 Build 0)  -->

<svg
   xmlns:dc="http://purl.org/dc/elements/1.1/"
   xmlns:cc="http://creativecommons.org/ns#"
   xmlns:rdf="http://www.w3.org/1999/02/22-rdf-syntax-ns#"
   xmlns:svg="http://www.w3.org/2000/svg"
   xmlns="http://www.w3.org/2000/svg"
   xmlns:xlink="http://www.w3.org/1999/xlink"
   xmlns:sodipodi="http://sodipodi.sourceforge.net/DTD/sodipodi-0.dtd"
   xmlns:inkscape="http://www.inkscape.org/namespaces/inkscape"
   version="1.1"
   id="Layer_1"
   x="0px"
   y="0px"
   width="263.9px"
   height="151.2px"
   viewBox="-955.6 461.6 263.9 151.2"
   style="enable-background:new -955.6 461.6 263.9 151.2;"
   xml:space="preserve"
   sodipodi:docname="touchpadWTawna.svg"
   inkscape:version="0.92.4 (5da689c313, 2019-01-14)"><metadata
   id="metadata5565"><rdf:RDF><cc:Work
       rdf:about=""><dc:format>image/svg+xml</dc:format><dc:type
         rdf:resource="http://purl.org/dc/dcmitype/StillImage" /><dc:title /></cc:Work></rdf:RDF></metadata><defs
   id="defs5563" /><sodipodi:namedview
   pagecolor="#ffffff"
   bordercolor="#666666"
   borderopacity="1"
   objecttolerance="10"
   gridtolerance="10"
   guidetolerance="10"
   inkscape:pageopacity="0"
   inkscape:pageshadow="2"
   inkscape:window-width="1920"
   inkscape:window-height="1027"
   id="namedview5561"
   showgrid="false"
   inkscape:zoom="3.043855"
   inkscape:cx="216.19623"
   inkscape:cy="103.97763"
   inkscape:window-x="-8"
   inkscape:window-y="-8"
   inkscape:window-maximized="1"
   inkscape:current-layer="Layer_1" />
<style
   type="text/css"
   id="style5538">
	.st0{fill:none;}
	.st1{fill:#61E0DF;}
	.st2{fill:#3ED8D2;}
	.st3{opacity:0.2;}
	.st4{fill:url(#SVGID_1_);}
</style>
<pattern
   x="-910"
   y="552"
   width="71"
   height="71"
   patternUnits="userSpaceOnUse"
   id="Dots_white_2"
   viewBox="0 -71 71 71"
   style="overflow:visible;">
	<g
   id="g5544">
		<polygon
   class="st0"
   points="0,-71 71,-71 71,0 0,0   "
   id="polygon5540" />
		<path
   d="M41.8-35.5c0,3.5-2.8,6.3-6.3,6.3c-3.5,0-6.3-2.8-6.3-6.3s2.8-6.3,6.3-6.3C39-41.8,41.8-39,41.8-35.5z"
   id="path5542" />
	</g>
</pattern>
<g
   id="g5558">
	<path
   class="st1"
   d="M-691.8,467.2c-0.4-3.2-3.3-5.6-6.5-5.6l0,0h-125.3h0h-125.3l0,0c-3.2,0-6.1,2.3-6.5,5.6   c-0.1,0.7-0.1,1.4-0.1,2.1v127.4c0,8.9,7.2,16.1,16.1,16.1h115.8h0h115.8c8.9,0,16.1-7.2,16.1-16.1V469.3   C-691.7,468.5-691.8,467.8-691.8,467.2z"
   id="path5547"
   style="fill:#ce1900;fill-opacity:1" />
	<g
   id="g5556">
		<path
   class="st2"
   d="M-696.2,463.5c0-1-0.8-1.9-1.9-1.9h-125.6h0h-125.6c-1,0-1.9,0.8-1.9,1.9l0,6v123.2c0,8.6,7,15.6,15.6,15.6    h111.9h0h111.9c8.6,0,15.6-7,15.6-15.6V469.5L-696.2,463.5z"
   id="path5549"
   style="fill:#de331b;fill-opacity:1" />
		<g
   class="st3"
   id="g5554">
			
				<pattern
   id="SVGID_1_"
   xlink:href="#Dots_white_2"
   patternTransform="matrix(0.1017 0 0 0.1017 -7232.3452 -7295.9248)"
   class="st3">
			</pattern>
			<path
   class="st4"
   d="M-951.1,592.7c0,8.6,7,15.6,15.6,15.6h111.9h0h111.9c8.6,0,15.6-7,15.6-15.6V486.1h-254.9V592.7z"
   id="path5552" />
		</g>
	</g>
</g>
</svg>